# xmcd CD database file
# Copyright (C) 1993-1998 Ti Kan
# 
# Track frame offsets:
#     150
#     13302
#     27052
#     39747
#     51580
#     64562
#     76895
#     88975
#     103795
#     117695
#     130682
#     144092
#     156440
#     169482
# 
# Disc length: 2421 seconds
# 
# Revision: 1
# Processed by: cddbd v1.4b41PL1 Copyright (c) Steve Scherf et al.
# Submitted via: DiscPlay 4.0.4
# 
DISCID=c509730e
DTITLE=Los Panchos - Ritmo y Romance 2 - Los Panchos 2
DYEAR=1900
DGENRE=
TTITLE0=Amorcito corazon
TTITLE1=Cuando ya no me quieras
TTITLE2=Dilema
TTITLE3=Se te olvida (La mentira)
TTITLE4=Flor de azalea
TTITLE5=Lo dudo
TTITLE6=La mucura
TTITLE7=La hiedra
TTITLE8=Mi Magdalena
TTITLE9=Me voy pa'l pueblo
TTITLE10=No, no y no
TTITLE11=Ni que si, ni quiza, ni que no
TTITLE12=Parece que va llover
TTITLE13=Una copa mas
EXTD=
EXTT0=
EXTT1=
EXTT2=
EXTT3=
EXTT4=
EXTT5=
EXTT6=
EXTT7=
EXTT8=
EXTT9=
EXTT10=
EXTT11=
EXTT12=
EXTT13=
PLAYORDER=
